<svg width="58" height="57" viewBox="0 0 58 57" fill="none" xmlns="http://www.w3.org/2000/svg">
<path d="M57.4827 53.2407L52.4637 48.2901V52.7473H3.4976V45.6873H6.99518V42.9654H3.4976V31.6523H6.99518V28.9304H3.4976V18.0427H6.99518V15.3208H3.4976V5.81101L31.3733 32.7751V27.9777L2.99046 0.503244C2.74585 0.263324 2.43334 0.0997009 2.09277 0.0332353C1.7522 -0.0332303 1.39899 0.000472979 1.07819 0.130048C0.757385 0.259624 0.483515 0.479201 0.291496 0.760784C0.0994772 1.04237 -0.00199043 1.3732 2.95842e-05 1.7111V54.4485C2.95842e-05 54.8997 0.184276 55.3324 0.512238 55.6514C0.840199 55.9705 1.28501 56.1497 1.74882 56.1497H56.241C56.5884 56.1517 56.9285 56.053 57.2179 55.8662C57.5074 55.6794 57.7331 55.413 57.8663 55.1009C57.9995 54.7888 58.0342 54.4452 57.9658 54.1139C57.8975 53.7826 57.7293 53.4786 57.4827 53.2407Z" fill="black"/>
</svg>
